<svg width="2000" height="2000" viewBox="0 0 2000 2000" fill="none" xmlns="http://www.w3.org/2000/svg">
<path d="M1159.26 1292.26L943.129 1152.49C941.133 1151.2 938.5 1152.64 938.5 1155.01V1412.45C938.5 1414.73 940.935 1416.17 942.935 1415.09L1159.07 1297.41C1161.07 1296.33 1161.17 1293.5 1159.26 1292.26Z" fill="#1F1F7A" stroke="#1F1F7A" stroke-width="2"/>
<path d="M1177.74 837.02L946.793 1101.38C945.586 1102.76 945.89 1104.89 947.436 1105.88L1178.38 1253.55C1180.38 1254.83 1183 1253.39 1183 1251.02V838.994C1183 836.223 1179.56 834.933 1177.74 837.02Z" fill="#1F1F7A" stroke="#1F1F7A" stroke-width="2"/>
<path d="M1207.99 1316.05L938.566 1462.65C937.601 1463.17 937 1464.18 937 1465.28V1920.32C937 1922.73 939.698 1924.16 941.69 1922.8L1664.9 1429.82C1667.05 1428.35 1666.44 1425.03 1663.91 1424.42L1210.12 1315.77C1209.4 1315.6 1208.64 1315.7 1207.99 1316.05Z" fill="#1F1F7A" stroke="#1F1F7A" stroke-width="2"/>
<path d="M891.5 1555.1V1912.46C891.5 1915.3 887.933 1916.55 886.16 1914.34L481.212 1409.37C479.313 1407 481.728 1403.63 484.579 1404.67L889.527 1552.28C890.712 1552.71 891.5 1553.84 891.5 1555.1Z" fill="#1F1F7A"/>
<path d="M891.5 1153.15V1506.24C891.5 1508.31 889.441 1509.76 887.487 1509.06L506.154 1372.21C503.739 1371.34 503.455 1368.04 505.687 1366.78L887.02 1150.54C889.02 1149.41 891.5 1150.85 891.5 1153.15Z" fill="#1F1F7A"/>
<path d="M891.5 123.193V1095.26C891.5 1096.34 890.923 1097.33 889.987 1097.86L481.367 1331.08C478.969 1332.45 476.152 1330.13 477.039 1327.51L885.659 122.229C886.749 119.015 891.5 119.798 891.5 123.193Z" fill="#1F1F7A"/>
<path d="M891.5 1555.1V1912.46C891.5 1915.3 887.933 1916.55 886.16 1914.34L481.212 1409.37C479.313 1407 481.728 1403.63 484.579 1404.67L889.527 1552.28C890.712 1552.71 891.5 1553.84 891.5 1555.1Z" stroke="#1F1F7A" stroke-width="3"/>
<path d="M891.5 1153.15V1506.24C891.5 1508.31 889.441 1509.76 887.487 1509.06L506.154 1372.21C503.739 1371.34 503.455 1368.04 505.687 1366.78L887.02 1150.54C889.02 1149.41 891.5 1150.85 891.5 1153.15Z" stroke="#1F1F7A" stroke-width="3"/>
<path d="M891.5 123.193V1095.26C891.5 1096.34 890.923 1097.33 889.987 1097.86L481.367 1331.08C478.969 1332.45 476.152 1330.13 477.039 1327.51L885.659 122.229C886.749 119.015 891.5 119.798 891.5 123.193Z" stroke="#1F1F7A" stroke-width="3"/>
<path d="M1185.2 760.359L943.788 1046.24C941.984 1048.37 938.497 1047.1 938.496 1044.3L938.004 89.1474C938.003 86.3013 941.595 85.053 943.359 87.2868L1376.93 636.372C1378.03 637.775 1377.68 639.828 1376.16 640.775L1185.9 759.751C1185.63 759.916 1185.4 760.121 1185.2 760.359Z" fill="#0CDDF2" stroke="#0CDDF2" stroke-width="3"/>
<path d="M1222.41 783.619L1392.93 676.924C1394.52 675.925 1396.63 676.626 1397.31 678.381L1671.38 1384.04C1672.26 1386.32 1670.2 1388.64 1667.83 1388.03L1223.25 1272.58C1221.92 1272.24 1221 1271.05 1221 1269.68V786.162C1221 785.128 1221.53 784.167 1222.41 783.619Z" fill="#0CDDF2" stroke="#0CDDF2" stroke-width="3"/>
</svg>
